<svg xmlns="http://www.w3.org/2000/svg" viewBox="0 0 175.18 51.05"><defs><style>.cls-1{fill:#231f20;}</style></defs><g id="Layer_2" data-name="Layer 2"><g id="Layer_1-2" data-name="Layer 1"><path class="cls-1" d="M14.11,5.22V0H0V10.4C4.54,8.12,9.19,6.06,14.11,5.22Z"/><path class="cls-1" d="M0,43.05V50.4H14.11V47.74C9.47,46,4.76,44.45,0,43.05Z"/><path class="cls-1" d="M28.74,22.29,49.32,0H33.62L14.11,20.94v-5.5C9.2,16.77,4.58,19.25,0,21.61V32.74q7.32,2.09,14.5,4.62l4.9-5.26L33.84,50.4H50.4Z"/><path class="cls-1" d="M68.76,51.05a19.06,19.06,0,0,1-8.53-1.87,13.35,13.35,0,0,1-5.91-5.87A21.53,21.53,0,0,1,52.2,33.19V11.38H65.88V31q0,4.53,1.69,6.48a6,6,0,0,0,4.79,1.94A7.36,7.36,0,0,0,76,38.45a6.67,6.67,0,0,0,2.67-3,12.05,12.05,0,0,0,1-5.29V11.38H93.38v39h-13v-11l2.52,3.1A13.75,13.75,0,0,1,77,48.92,16.69,16.69,0,0,1,68.76,51.05Z"/><path class="cls-1" d="M102.17,50.4v-39h13V22.75l-1.94-3.24a12.6,12.6,0,0,1,5.61-6.59,19,19,0,0,1,9.43-2.19V23a14.25,14.25,0,0,0-1.62-.18c-.45,0-1,0-1.47,0a9.91,9.91,0,0,0-6.77,2.27q-2.59,2.27-2.59,7.38V50.4Z"/><path class="cls-1" d="M153.14,51.05a24.3,24.3,0,0,1-11.37-2.59A19.75,19.75,0,0,1,134,41.29a19.36,19.36,0,0,1-2.85-10.47A19.19,19.19,0,0,1,134,20.38a19.58,19.58,0,0,1,7.81-7.1,24.54,24.54,0,0,1,11.37-2.55,24.81,24.81,0,0,1,11.42,2.55,19,19,0,0,1,10.62,17.54,19.2,19.2,0,0,1-10.62,17.64A24.57,24.57,0,0,1,153.14,51.05Zm0-10.87a8.18,8.18,0,0,0,4.22-1.08,7.59,7.59,0,0,0,2.91-3.21,11,11,0,0,0,1.08-5.07,10.66,10.66,0,0,0-1.08-5,7.68,7.68,0,0,0-2.91-3.13,8.18,8.18,0,0,0-4.22-1.08,7.76,7.76,0,0,0-7.09,4.21,10.42,10.42,0,0,0-1.11,5,10.78,10.78,0,0,0,1.11,5.07A7.87,7.87,0,0,0,149,39.1,8,8,0,0,0,153.14,40.18Z"/></g></g></svg>