<?xml version="1.0" encoding="UTF-8"?><svg xmlns="http://www.w3.org/2000/svg" viewBox="0 0 317.73 236.78"><defs><style>.d{letter-spacing:0em;}.e{font-family:MyriadPro-Regular, Myriad Pro;font-size:48px;}.f{fill:#b2b2b2;}.g{fill:#020202;}.h{fill:#fbfbf8;}.i{fill:#bdbdbd;}.j{fill:#111;}.k{fill:#101010;}.l{fill:#828282;}.m{letter-spacing:0em;}.n{fill:#181818;}.o{fill:#3b3b3b;}.p{fill:#171717;}.q{fill:#141414;}.r{fill:#191919;}.s{letter-spacing:0em;}.t{fill:#fdfdf8;}.u{fill:#010101;}.v{fill:#fefefe;}</style></defs><g id="a"/><g id="b"><g id="c"><g><path d="M218.19,181.1c-19.24,34.64-68.02,64.45-123.68,53.31C39.97,223.5-.78,173.77,.01,117.49,.84,58.38,42.93,12.6,96.37,2.1c52.12-10.24,102.29,18.5,121.21,52.81-6.55,1.26-11.42,.34-16.27-5.64C153.26-10.02,57.71,.24,22.76,68.16c-34.26,66.57,5.66,146.12,79.74,157.18,39.67,5.92,73.09-7.64,99.36-38.12,6.33-7.34,6.15-7.49,16.32-6.12Z"/><text class="e" transform="translate(223.98 140.74)"><tspan class="d" x="0" y="0">K</tspan><tspan class="s" x="25.73" y="0">u</tspan><tspan class="m" x="52.18" y="0">r</tspan><tspan x="67.39" y="0">o</tspan></text><path class="i" d="M185.56,156.7c-41.11,0-82.22,.02-123.34,.03,.06-.27,.05-.54-.01-.8l123.32,.03c-.03,.25-.02,.5,.03,.75Z"/><path class="f" d="M50.69,159.37l-.24,1.85c-1.61-2.44-.87-3.65,1.97-3.68,3.62-.03,7.25-.02,10.87-.02,1.12-.69,2.37-.42,3.56-.42,38.73-.01,77.47-.01,116.2,0,1.2,0,2.44-.26,3.57,.39,3.65,.02,7.29,.01,10.94,.05,2.96,.03,3.57,1.28,1.85,3.68-.03-.62-.06-1.24-.09-1.86-1.41-.86-2.97-.44-4.46-.45-12.61-.04-25.22,.14-37.83-.07-9.87-.16-19.71,1.13-29.53,.78-23.98-.83-47.95-.71-71.93-.71-1.63,0-3.34-.47-4.9,.46Z"/><path d="M63.28,156.71c-4.68-1.7-6.22-5.14-6.19-9.96,.11-21.88,.04-43.76,.06-65.64,0-7.27,2.91-10.15,10.27-10.15,38.44-.02,76.89-.02,115.33,0,7.24,0,10.15,2.99,10.15,10.29,.01,21.88-.05,43.76,.05,65.64,.02,4.84-1.7,8.2-6.35,9.84-1.68,1.38-3.71,1.16-5.67,1.16-37.33,.02-74.66,.02-111.99,0-1.95,0-3.98,.22-5.66-1.18Z"/><path d="M199.42,161.21c-1.47,3.95-4.33,5.43-8.5,5.42-43.96-.07-87.92-.07-131.88,0-4.21,0-6.91-1.73-8.58-5.43-.41-.89-.47-1.72,.47-2.34,5.41-.95,10.89-.56,16.33-.7,13.51-.34,27.03-.13,40.55-.09,1.8,0,3.67-.24,5.26,.94,.22,1.02,1.07,.89,1.76,.86,7.06-.23,14.14,.58,21.18-.49,1.6-1.04,3.39-1.29,5.23-1.3,18.65-.07,37.3-.16,55.95,.39,.61,.02,1.2,.15,1.77,.39,.94,.62,.88,1.45,.47,2.34Z"/><path class="v" d="M125.39,75.5c18.86,0,37.72,0,56.57,0,5.79,0,6.36,.56,6.36,6.17,0,21.6-.08,43.19,.07,64.79,.03,4.37-1.48,5.85-5.84,5.84-38.32-.12-76.65-.06-114.97-.07-5.43,0-5.96-.55-5.96-6.08-.01-21.6,.07-43.19-.07-64.79-.03-4.35,1.57-5.94,5.89-5.91,19.31,.13,38.63,.06,57.94,.06Z"/><path class="o" d="M49.61,158.58c1.03-1.77,2.74-.89,4.09-.89,46.8-.05,93.61-.05,140.41,0,1.38,0,3.07-.81,4.14,.88-19.09,0-38.18,0-57.27,0-2.1,0-4.3-.35-5.68,1.84-6.02-1.07-12.09-.16-18.12-.51-1.59-.09-3.34,.69-4.78-.65-1.33-1.09-2.92-.66-4.4-.66-19.47-.02-38.94,0-58.41,0Z"/><path class="l" d="M112.42,159.24c6.27,.05,12.54,.06,18.81,.16,1.4,.02,3.04-.61,4.09,1-7.58-.02-15.16-.05-22.74-.09-.1,0-.29-.2-.29-.3,0-.26,.08-.52,.13-.77Z"/><g><path d="M104.91,94.85c1.45,7.98,2.93,15.89,4.31,23.82,.21,1.19,.66,1.41,1.77,1.33,5.48-.42,10.97-.69,16.44-1.17,1.89-.17,3.01,.19,2.93,2.46l-20.24,1.35c.7,2.06,1.61,2.67,4.13,2.68,5.25,.02,10.51,.05,15.76-.02,1.39-.02,2.21,.3,2.22,1.97-4.68,0-9.38,0-14.07,0-1.75,0-3.5,.03-5.25-.05-3.1-.14-5.02-1.85-5.58-4.93-1.67-9.3-3.32-18.61-4.98-27.91-.32-1.79-.73-3.57-1.55-5.21-.9-1.8-2.2-2.95-4.43-2.75-.86,.08-1.4,.32-1.95,.99-1.49,1.8-3.29,1.91-4.85,.41-1.28-1.24-1.27-3.52,.02-4.75,1.54-1.48,3.41-1.37,4.87,.4,.5,.6,.92,.95,1.76,.96,4.41,.08,6.64,1.84,7.77,6.28,.33,1.28,.84,1.56,2.07,1.55,13.95-.05,27.9-.03,41.85-.03,5.03,0,7.01,2.32,6.37,7.29-.61,4.75-1.12,9.52-1.74,14.27-.23,1.78-.64,1.88-2.15,.91-.53-.34-.47-.65-.4-1.18,.65-4.87,1.25-9.74,1.86-14.61,.33-2.6-.9-4.17-3.47-4.17-14.25-.03-28.51-.01-42.76,0-.23,0-.46,.07-.75,.12Z"/><path d="M139.33,123.66c-.8,1.56-1.48,2.89-2.17,4.21-.28,.55-.61,1.11-1.33,1.04-.71-.07-.94-.68-1.12-1.28-1.94-6.29-3.88-12.59-5.81-18.89-.17-.57-.34-1.18,.26-1.66,.6-.49,1.13-.19,1.67,.09,5.69,2.9,11.38,5.81,17.08,8.7,.57,.29,1.13,.65,1.09,1.31-.04,.66-.69,.92-1.25,1.18-1.15,.54-3.06,.57-3.27,1.69-.16,.83,1.35,1.98,2.13,2.98,.78,1,1.59,1.98,2.38,2.97,.23,.28,.59,.54,.65,.86,.43,2.39-2.01,2.5-3.06,3.72-.68,.79-1.54,.75-2.26-.25-1.58-2.18-3.23-4.31-5.01-6.68Z"/><path class="u" d="M139.6,140.73c-2.5-.03-4.28-1.85-4.29-4.4-.01-2.58,1.91-4.48,4.46-4.43,2.45,.05,4.33,1.97,4.33,4.42,0,2.53-1.95,4.44-4.49,4.41Z"/><path class="g" d="M114.13,140.74c-2.49-.02-4.28-1.86-4.3-4.4-.01-2.59,1.89-4.49,4.45-4.44,2.47,.05,4.32,1.94,4.32,4.41,0,2.57-1.9,4.45-4.47,4.43Z"/><path class="n" d="M127.08,111.98c.34,.09,.53,.35,.43,.66-.4,1.25-.83,2.49-1.28,3.73-.04,.12-.34,.26-.43,.21-.19-.09-.49-.34-.47-.46,.29-1.4,.68-2.77,1.44-3.99,.05-.08,.2-.1,.31-.14Z"/><path class="p" d="M132.4,103.56c-.57-.07-.69-.42-.51-.89,.39-1.08,.79-2.15,1.2-3.22,.11-.3,.3-.56,.67-.39,.14,.06,.32,.3,.29,.4-.43,1.31-.88,2.62-1.35,3.92-.03,.08-.19,.12-.3,.18Z"/><path class="r" d="M125.55,105.24c-.1,.35-.33,.51-.67,.39-1.19-.43-2.37-.88-3.55-1.33-.25-.1-.4-.3-.26-.56,.08-.14,.24-.26,.4-.32,.34-.14,3.82,1.17,3.99,1.49,.05,.1,.06,.23,.09,.34Z"/><path class="q" d="M121.5,111.33c-.28,.07-.51-.04-.63-.25-.17-.3-.09-.59,.23-.76,1.02-.51,2.04-1.01,3.06-1.52,.31-.16,.57-.16,.76,.16,.17,.31,.1,.62-.19,.77-1.06,.55-2.15,1.06-3.22,1.59Z"/><path class="j" d="M128.83,102.51c-.15,.21-.25,.44-.42,.56-.25,.18-.49-.03-.58-.22-.54-1.13-1.07-2.27-1.56-3.43-.07-.16,.03-.53,.17-.61,.14-.08,.55,0,.62,.12,.61,1.16,1.17,2.35,1.78,3.58Z"/><path class="k" d="M138.59,104.89c-.09,.1-.22,.33-.41,.42-1.01,.5-2.04,.97-3.06,1.45-.31,.15-.61,.09-.78-.19-.12-.2-.09-.5,.16-.62,1.17-.58,2.33-1.16,3.52-1.68,.27-.12,.56,.12,.56,.62Z"/><path class="t" d="M136.12,124.9c-1.52-4.86-3.02-9.66-4.66-14.9l13.57,6.85c-.62,.77-1.5,.85-2.21,1.17-1.76,.78-1.9,1.2-.69,2.77,1.71,2.2,3.44,4.38,5.18,6.59l-1.61,1.21c-1.7-2.28-3.36-4.54-5.05-6.78-1.27-1.68-1.82-1.65-2.81,.15-.5,.9-.97,1.81-1.46,2.72-.03,.05-.09,.08-.27,.22Z"/><path class="h" d="M139.61,138.62c-1.38-.15-2.15-.95-2.18-2.37-.03-1.31,1.03-2.24,2.38-2.15,1.36,.09,2.12,.84,2.09,2.23-.03,1.43-.79,2.24-2.29,2.29Z"/><path class="h" d="M114.26,134.08c1.38,.09,2.24,.84,2.19,2.28-.04,1.4-.86,2.26-2.29,2.25-1.43-.01-2.22-.94-2.24-2.3-.02-1.43,.89-2.14,2.33-2.23Z"/><path class="h" d="M91.79,83.23c1.38,.09,2.24,.84,2.19,2.28-.04,1.4-.86,2.26-2.29,2.25-1.43-.01-2.22-.94-2.24-2.3-.02-1.43,.89-2.14,2.33-2.23Z"/></g></g></g></g></svg>